<svg aria-hidden="true" style="position: absolute; width: 0; height: 0; overflow: hidden;" version="1.1" xmlns="http://www.w3.org/2000/svg" xmlns:xlink="http://www.w3.org/1999/xlink"><defs><symbol id="mp-person" viewBox="0 0 24 24" style="fill: currentColor"><path d="M12 2a5 5 0 1 0 5 5 5 5 0 0 0-5-5zm0 8a3 3 0 1 1 3-3 3 3 0 0 1-3 3zm9 11v-1a7 7 0 0 0-7-7h-4a7 7 0 0 0-7 7v1h2v-1a5 5 0 0 1 5-5h4a5 5 0 0 1 5 5v1z"></path></symbol><symbol id="mp-credits" viewBox="0 0 24 24" style="fill: currentColor"><path d="M15 11h7v2h-7zm1 4h6v2h-6zm-2-8h8v2h-8zM4 19h10v-1c0-2.757-2.243-5-5-5H7c-2.757 0-5 2.243-5 5v1h2zm4-7c1.995 0 3.5-1.505 3.5-3.5S9.995 5 8 5 4.5 6.505 4.5 8.5 6.005 12 8 12z"></path></symbol><symbol id="mp-trophy" viewBox="0 0 24 24" style="fill: currentColor"><path d="M21 4h-3V3a1 1 0 0 0-1-1H7a1 1 0 0 0-1 1v1H3a1 1 0 0 0-1 1v3c0 4.31 1.799 6.91 4.819 7.012A6.001 6.001 0 0 0 11 17.91V20H9v2h6v-2h-2v-2.09a6.01 6.01 0 0 0 4.181-2.898C20.201 14.91 22 12.31 22 8V5a1 1 0 0 0-1-1zM4 8V6h2v6.83C4.216 12.078 4 9.299 4 8zm8 8c-2.206 0-4-1.794-4-4V4h8v8c0 2.206-1.794 4-4 4zm6-3.17V6h2v2c0 1.299-.216 4.078-2 4.83z"></path></symbol><symbol id="mp-chart" viewBox="0 0 24 24" style="fill: currentColor"><path d="M6 21H3a1 1 0 0 1-1-1v-8a1 1 0 0 1 1-1h3a1 1 0 0 1 1 1v8a1 1 0 0 1-1 1zm7 0h-3a1 1 0 0 1-1-1V3a1 1 0 0 1 1-1h3a1 1 0 0 1 1 1v17a1 1 0 0 1-1 1zm7 0h-3a1 1 0 0 1-1-1V9a1 1 0 0 1 1-1h3a1 1 0 0 1 1 1v11a1 1 0 0 1-1 1z"></path></symbol><symbol id="mp-play" viewBox="0 0 24 24" style="fill: currentColor"><path d="M7 6v12l10-6z"></path></symbol><symbol id="mp-pause" viewBox="0 0 24 24" style="fill: currentColor"><path d="M8 7h3v10H8zm5 0h3v10h-3z"></path></symbol><symbol id="mp-warning" viewBox="0 0 24 24" style="fill: currentColor"><path d="M11.001 10h2v5h-2zM11 16h2v2h-2z"></path><path d="M13.768 4.2C13.42 3.545 12.742 3.138 12 3.138s-1.42.407-1.768 1.063L2.894 18.064a1.986 1.986 0 0 0 .054 1.968A1.984 1.984 0 0 0 4.661 21h14.678c.708 0 1.349-.362 1.714-.968a1.989 1.989 0 0 0 .054-1.968L13.768 4.2zM4.661 19 12 5.137 19.344 19H4.661z"></path></symbol><symbol id="mp-video" viewBox="0 0 24 24" style="fill: currentColor"><path d="M20 3H4c-1.103 0-2 .897-2 2v14c0 1.103.897 2 2 2h16c1.103 0 2-.897 2-2V5c0-1.103-.897-2-2-2zm.001 6c-.001 0-.001 0 0 0h-.465l-2.667-4H20l.001 4zM15.5 15 10 18v-6l5.5 3zm-.964-6-2.667-4h2.596l2.667 4h-2.596zm-2.404 0H9.536L6.869 5h2.596l2.667 4zM4 5h.465l2.667 4H4V5z"></path></symbol><symbol id="mp-info" viewBox="0 0 24 24" style="fill: currentColor"><path d="M12 2C6.486 2 2 6.486 2 12s4.486 10 10 10 10-4.486 10-10S17.514 2 12 2zm0 18c-4.411 0-8-3.589-8-8s3.589-8 8-8 8 3.589 8 8-3.589 8-8 8z"></path><path d="M11 11h2v6h-2zm0-4h2v2h-2z"></path></symbol><symbol id="mp-info-filled" viewBox="0 0 24 24" style="fill: currentColor"><path d="M12 2C6.486 2 2 6.486 2 12s4.486 10 10 10 10-4.486 10-10S17.514 2 12 2zm1 15h-2v-6h2v6zm0-8h-2V7h2v2z"></path></symbol><symbol id="mp-star" viewBox="0 0 24 24" style="fill: currentColor"><path d="m6.516 14.323-1.49 6.452a.998.998 0 0 0 1.529 1.057L12 18.202l5.445 3.63a1.001 1.001 0 0 0 1.517-1.106l-1.829-6.4 4.536-4.082a1 1 0 0 0-.59-1.74l-5.701-.454-2.467-5.461a.998.998 0 0 0-1.822 0L8.622 8.05l-5.701.453a1 1 0 0 0-.619 1.713l4.214 4.107zm2.853-4.326a.998.998 0 0 0 .832-.586L12 5.43l1.799 3.981a.998.998 0 0 0 .832.586l3.972.315-3.271 2.944c-.284.256-.397.65-.293 1.018l1.253 4.385-3.736-2.491a.995.995 0 0 0-1.109 0l-3.904 2.603 1.05-4.546a1 1 0 0 0-.276-.94l-3.038-2.962 4.09-.326z"></path></symbol><symbol id="mp-star-filled" viewBox="0 0 24 24" style="fill: currentColor"><path d="M21.947 9.179a1.001 1.001 0 0 0-.868-.676l-5.701-.453-2.467-5.461a.998.998 0 0 0-1.822-.001L8.622 8.05l-5.701.453a1 1 0 0 0-.619 1.713l4.213 4.107-1.49 6.452a1 1 0 0 0 1.53 1.057L12 18.202l5.445 3.63a1.001 1.001 0 0 0 1.517-1.106l-1.829-6.4 4.536-4.082c.297-.268.406-.686.278-1.065z"></path></symbol><symbol id="mp-star-half" viewBox="0 0 24 24" style="fill: currentColor"><path d="M5.025 20.775A.998.998 0 0 0 6 22a1 1 0 0 0 .555-.168L12 18.202l5.445 3.63a1.001 1.001 0 0 0 1.517-1.106l-1.829-6.4 4.536-4.082a1 1 0 0 0-.59-1.74l-5.701-.454-2.467-5.461a.998.998 0 0 0-1.822-.001L8.622 8.05l-5.701.453a1 1 0 0 0-.619 1.713l4.214 4.107-1.491 6.452zM12 5.429l2.042 4.521.588.047h.001l3.972.315-3.271 2.944-.001.002-.463.416.171.597v.003l1.253 4.385L12 15.798V5.429z"></path></symbol><symbol id="mp-arrow-right" viewBox="0 0 24 24" style="fill: currentColor"><path d="m11.293 17.293 1.414 1.414L19.414 12l-6.707-6.707-1.414 1.414L15.586 11H6v2h9.586z"></path></symbol><symbol id="mp-arrow-left" viewBox="0 0 24 24" style="fill: currentColor"><path d="M12.707 17.293 8.414 13H18v-2H8.414l4.293-4.293-1.414-1.414L4.586 12l6.707 6.707z"></path></symbol><symbol id="mp-arrow-up" viewBox="0 0 24 24" style="fill: currentColor"><path d="M11 8.414V18h2V8.414l4.293 4.293 1.414-1.414L12 4.586l-6.707 6.707 1.414 1.414z"></path></symbol><symbol id="mp-arrow-down" viewBox="0 0 24 24" style="fill: currentColor"><path d="m18.707 12.707-1.414-1.414L13 15.586V6h-2v9.586l-4.293-4.293-1.414 1.414L12 19.414z"></path></symbol><symbol id="mp-check" viewBox="0 0 24 24" style="fill: currentColor"><path d="m10 15.586-3.293-3.293-1.414 1.414L10 18.414l9.707-9.707-1.414-1.414z"></path></symbol><symbol id="mp-check-circle" viewBox="0 0 24 24" style="fill: currentColor"><path d="M12 2C6.486 2 2 6.486 2 12s4.486 10 10 10 10-4.486 10-10S17.514 2 12 2zm-1.999 14.413-3.713-3.705L7.7 11.292l2.299 2.295 5.294-5.294 1.414 1.414-6.706 6.706z"></path></symbol><symbol id="mp-x" viewBox="0 0 24 24" style="fill: currentColor"><path d="m16.192 6.344-4.243 4.242-4.242-4.242-1.414 1.414L10.535 12l-4.242 4.242 1.414 1.414 4.242-4.242 4.243 4.242 1.414-1.414L13.364 12l4.242-4.242z"></path></symbol><symbol id="mp-x-circle" viewBox="0 0 24 24" style="fill: currentColor"><path d="M12 2C6.486 2 2 6.486 2 12s4.486 10 10 10 10-4.486 10-10S17.514 2 12 2zm4.207 12.793-1.414 1.414L12 13.414l-2.793 2.793-1.414-1.414L10.586 12 7.793 9.207l1.414-1.414L12 10.586l2.793-2.793 1.414 1.414L13.414 12l2.793 2.793z"></path></symbol><symbol id="mp-github" viewBox="0 0 24 24" style="fill: currentColor"><path fill-rule="evenodd" clip-rule="evenodd" d="M12.026 2c-5.509 0-9.974 4.465-9.974 9.974 0 4.406 2.857 8.145 6.821 9.465.499.09.679-.217.679-.481 0-.237-.008-.865-.011-1.696-2.775.602-3.361-1.338-3.361-1.338-.452-1.152-1.107-1.459-1.107-1.459-.905-.619.069-.605.069-.605 1.002.07 1.527 1.028 1.527 1.028.89 1.524 2.336 1.084 2.902.829.091-.645.351-1.085.635-1.334-2.214-.251-4.542-1.107-4.542-4.93 0-1.087.389-1.979 1.024-2.675-.101-.253-.446-1.268.099-2.64 0 0 .837-.269 2.742 1.021a9.582 9.582 0 0 1 2.496-.336 9.554 9.554 0 0 1 2.496.336c1.906-1.291 2.742-1.021 2.742-1.021.545 1.372.203 2.387.099 2.64.64.696 1.024 1.587 1.024 2.675 0 3.833-2.33 4.675-4.552 4.922.355.308.675.916.675 1.846 0 1.334-.012 2.41-.012 2.737 0 .267.178.577.687.479C19.146 20.115 22 16.379 22 11.974 22 6.465 17.535 2 12.026 2z"></path></symbol><symbol id="mp-email" viewBox="0 0 24 24" style="fill: currentColor"><path d="M20 4H4c-1.103 0-2 .897-2 2v12c0 1.103.897 2 2 2h16c1.103 0 2-.897 2-2V6c0-1.103-.897-2-2-2zm0 2v.511l-8 6.223-8-6.222V6h16zM4 18V9.044l7.386 5.745a.994.994 0 0 0 1.228 0L20 9.044 20.002 18H4z"></path></symbol><symbol id="mp-rocket" viewBox="0 0 24 24" style="fill: currentColor"><path d="M15.78 15.84S18.64 13 19.61 12c3.07-3 1.54-9.18 1.54-9.18S15 1.29 12 4.36C9.66 6.64 8.14 8.22 8.14 8.22S4.3 7.42 2 9.72L14.25 22c2.3-2.33 1.53-6.16 1.53-6.16zm-1.5-9a2 2 0 0 1 2.83 0 2 2 0 1 1-2.83 0zM3 21a7.81 7.81 0 0 0 5-2l-3-3c-2 1-2 5-2 5z"></path></symbol><symbol id="mp-planet" viewBox="0 0 24 24" style="fill: currentColor"><path d="M2.76 20.2a2.73 2.73 0 0 0 2.15.85 8.86 8.86 0 0 0 3.37-.86 9 9 0 0 0 12.27-10.9c1.31-2.23 1.75-4.26.67-5.48a2.94 2.94 0 0 0-2.57-1A5 5 0 0 0 16.1 4 9 9 0 0 0 3.58 15.14c-1.06 1.21-2.05 3.68-.82 5.06zm1.5-1.32c-.22-.25 0-1.07.37-1.76a9.26 9.26 0 0 0 1.57 1.74c-1.03.3-1.71.28-1.94.02zm14.51-5.17A7 7 0 0 1 15.58 18 7.12 7.12 0 0 1 12 19a6.44 6.44 0 0 1-1.24-.13 30.73 30.73 0 0 0 4.42-3.29 31.5 31.5 0 0 0 3.8-4 6.88 6.88 0 0 1-.21 2.13zm.09-8.89a.94.94 0 0 1 .87.32c.23.26.16.94-.26 1.93a9.2 9.2 0 0 0-1.61-1.86 2.48 2.48 0 0 1 1-.39zM5.22 10.31A6.94 6.94 0 0 1 8.41 6 7 7 0 0 1 12 5a6.9 6.9 0 0 1 6 3.41 5.19 5.19 0 0 1 .35.66 27.43 27.43 0 0 1-4.49 5A27.35 27.35 0 0 1 8.35 18a7 7 0 0 1-3.13-7.65z"></path></symbol><symbol id="mp-accessibility" viewBox="0 0 24 24" style="fill: currentColor"><circle cx="12" cy="7.5" r="1.5"></circle><path d="M12 2a10 10 0 1 0 10 10A10 10 0 0 0 12 2zm0 18a8 8 0 1 1 8-8 8 8 0 0 1-8 8z"></path><path d="M16.5 10.5 16 9l-3 1h-2L8 9l-.5 1.5 3 1V13L9 17.25l1.5.75 1.25-3.5h.5L13.5 18l1.5-.75L13.5 13v-1.5l3-1z"></path></symbol><symbol id="mp-music" viewBox="0 0 32 32" style="fill: currentColor"><g><path d="m14.36 3.004l-6.14.8c-.32.04-.56.32-.56.64v7.62c-.57-.2-1.2-.28-1.86-.21c-2.05.22-3.67 1.92-3.8 3.98a4.27 4.27 0 0 0 4.27 4.55c2.36 0 4.28-1.91 4.28-4.28c0-.09 0-.18-.01-.27v-7.83c0-.28.21-.52.49-.56l3.46-.45a.53.53 0 0 0 .46-.53v-2.93a.52.52 0 0 0-.59-.53m15.04 2.37l-6.14.8c-.32.04-.56.31-.56.63v10.01c-.57-.2-1.2-.28-1.86-.21c-2.05.22-3.67 1.92-3.8 3.98a4.27 4.27 0 0 0 4.27 4.55c2.36 0 4.28-1.91 4.28-4.28c0-.09 0-.18-.01-.27v-10.21c0-.28.21-.52.49-.56l3.46-.45c.27-.04.47-.26.47-.53v-2.94c0-.32-.28-.56-.6-.52" /><path d="m13.09 10.654l6.14-.8c.32-.05.6.2.6.52v2.93c0 .27-.2.5-.46.53l-3.46.45a.57.57 0 0 0-.49.56v10.22c.01.09.01.18.01.27c0 2.37-1.92 4.28-4.28 4.28c-2.46 0-4.43-2.06-4.27-4.55c.12-2.06 1.74-3.75 3.79-3.97c.66-.07 1.29.01 1.86.21v-10.01c0-.33.24-.6.56-.64" /></g></symbol><symbol id="mp-sparkle" viewBox="0 0 24 24" style="fill: currentColor"><path fill="currentColor" d="M7.195 2.845a.75.75 0 0 0-1.467 0c-.232 1.096-.55 1.835-.99 2.361c-.429.516-1.029.893-1.95 1.166a.75.75 0 0 0 0 1.438c.885.262 1.48.617 1.916 1.125c.444.516.782 1.26 1.024 2.402a.75.75 0 0 0 1.467 0c.242-1.143.58-1.886 1.024-2.402c.436-.508 1.03-.863 1.917-1.125a.75.75 0 0 0 0-1.438c-.886-.262-1.481-.617-1.917-1.125c-.444-.516-.782-1.26-1.024-2.402m8.303 3.251a.75.75 0 0 0-1.458 0c-.554 2.292-1.141 3.674-1.972 4.638c-.82.952-1.947 1.576-3.77 2.192a.75.75 0 0 0 0 1.421c1.904.643 3.046 1.322 3.852 2.292c.819.986 1.362 2.355 1.89 4.537a.75.75 0 0 0 1.458 0c.554-2.291 1.142-3.673 1.972-4.637c.82-.952 1.947-1.576 3.77-2.192a.75.75 0 0 0 0-1.421c-1.907-.644-3.047-1.32-3.852-2.29c-.818-.984-1.36-2.352-1.89-4.54" /></symbol><symbol id="mp-terminal" viewBox="0 0 24 24" style="fill: currentColor"><path d="M20 4H4a2 2 0 0 0-2 2v12a2 2 0 0 0 2 2h16a2 2 0 0 0 2-2V6a2 2 0 0 0-2-2zM6.414 15.707 5 14.293 7.293 12 5 9.707l1.414-1.414L10.121 12l-3.707 3.707zM19 16h-7v-2h7v2z"></path></symbol><symbol id="mp-globe" viewBox="0 0 24 24" style="fill: currentColor"><path d="M12 2C6.486 2 2 6.486 2 12s4.486 10 10 10 10-4.486 10-10S17.514 2 12 2zm7.931 9h-2.764a14.67 14.67 0 0 0-1.792-6.243A8.013 8.013 0 0 1 19.931 11zM12.53 4.027c1.035 1.364 2.427 3.78 2.627 6.973H9.03c.139-2.596.994-5.028 2.451-6.974.172-.01.344-.026.519-.026.179 0 .354.016.53.027zm-3.842.7C7.704 6.618 7.136 8.762 7.03 11H4.069a8.013 8.013 0 0 1 4.619-6.273zM4.069 13h2.974c.136 2.379.665 4.478 1.556 6.23A8.01 8.01 0 0 1 4.069 13zm7.381 6.973C10.049 18.275 9.222 15.896 9.041 13h6.113c-.208 2.773-1.117 5.196-2.603 6.972-.182.012-.364.028-.551.028-.186 0-.367-.016-.55-.027zm4.011-.772c.955-1.794 1.538-3.901 1.691-6.201h2.778a8.005 8.005 0 0 1-4.469 6.201z"></path></symbol><symbol id="mp-linkedin" viewBox="0 0 24 24" style="fill: currentColor"><path d="M20 3H4a1 1 0 0 0-1 1v16a1 1 0 0 0 1 1h16a1 1 0 0 0 1-1V4a1 1 0 0 0-1-1zM8.339 18.337H5.667v-8.59h2.672v8.59zM7.003 8.574a1.548 1.548 0 1 1 0-3.096 1.548 1.548 0 0 1 0 3.096zm11.335 9.763h-2.669V14.16c0-.996-.018-2.277-1.388-2.277-1.39 0-1.601 1.086-1.601 2.207v4.248h-2.667v-8.59h2.56v1.174h.037c.355-.675 1.227-1.387 2.524-1.387 2.704 0 3.203 1.778 3.203 4.092v4.71z"></path></symbol><symbol id="mp-teams" viewBox="-1 -1 18 18" style="fill: currentColor"><path d="M9.186 4.797a2.42 2.42 0 1 0-2.86-2.448h1.178c.929 0 1.682.753 1.682 1.682zm-4.295 7.738h2.613c.929 0 1.682-.753 1.682-1.682V5.58h2.783a.7.7 0 0 1 .682.716v4.294a4.197 4.197 0 0 1-4.093 4.293c-1.618-.04-3-.99-3.667-2.35Zm10.737-9.372a1.674 1.674 0 1 1-3.349 0 1.674 1.674 0 0 1 3.349 0m-2.238 9.488-.12-.002a5.2 5.2 0 0 0 .381-2.07V6.306a1.7 1.7 0 0 0-.15-.725h1.792c.39 0 .707.317.707.707v3.765a2.6 2.6 0 0 1-2.598 2.598z" /><path d="M.682 3.349h6.822c.377 0 .682.305.682.682v6.822a.68.68 0 0 1-.682.682H.682A.68.68 0 0 1 0 10.853V4.03c0-.377.305-.682.682-.682Zm5.206 2.596v-.72h-3.59v.72h1.357V9.66h.87V5.945z" /></symbol><symbol id="mp-eq" viewBox="0 0 24 24" style="fill: currentColor"><path d="M11 9h2v6h-2zm4-3h2v12h-2zM7 4h2v16H7zm12 7h2v2h-2zM3 10h2v4H3z"></path></symbol><symbol id="mp-book" viewBox="0 0 24 24" style="fill: currentColor"><path d="M6.012 18H21V4a2 2 0 0 0-2-2H6c-1.206 0-3 .799-3 3v14c0 2.201 1.794 3 3 3h15v-2H6.012C5.55 19.988 5 19.805 5 19s.55-.988 1.012-1zM8 6h9v2H8V6z"></path></symbol><symbol id="mp-metal" viewBox="0 0 24 24" style="fill: currentColor"><path d="M17 2h-4v4.059a8.946 8.946 0 0 1 4 1.459V2zm-6 0H7v5.518a8.946 8.946 0 0 1 4-1.459V2zm1 20a7 7 0 1 0 0-14 7 7 0 0 0 0 14zm-1.225-8.519L12 11l1.225 2.481 2.738.397-1.981 1.932.468 2.727L12 17.25l-2.449 1.287.468-2.727-1.981-1.932 2.737-.397z"></path></symbol><symbol id="mp-shirt" viewBox="0 0 24 24" style="fill: currentColor"><path d="M21.316 4.055C19.556 3.478 15 1.985 15 2a3 3 0 1 1-6 0c0-.015-4.556 1.478-6.317 2.055A.992.992 0 0 0 2 5.003v3.716a1 1 0 0 0 1.242.97L6 9v12a1 1 0 0 0 1 1h10a1 1 0 0 0 1-1V9l2.758.689A1 1 0 0 0 22 8.719V5.003a.992.992 0 0 0-.684-.948z"></path></symbol><symbol id="mp-bag" viewBox="0 0 24 24" style="fill: currentColor"><path d="M5 22h14a2 2 0 0 0 2-2V9a1 1 0 0 0-1-1h-3v-.777c0-2.609-1.903-4.945-4.5-5.198A5.005 5.005 0 0 0 7 7v1H4a1 1 0 0 0-1 1v11a2 2 0 0 0 2 2zm12-12v2h-2v-2h2zM9 7c0-1.654 1.346-3 3-3s3 1.346 3 3v1H9V7zm-2 3h2v2H7v-2z"></path></symbol><symbol id="mp-person-plus" viewBox="0 0 24 24" style="fill: currentColor"><path d="M4.5 8.552c0 1.995 1.505 3.5 3.5 3.5s3.5-1.505 3.5-3.5-1.505-3.5-3.5-3.5-3.5 1.505-3.5 3.5zM19 8h-2v3h-3v2h3v3h2v-3h3v-2h-3zM4 19h10v-1c0-2.757-2.243-5-5-5H7c-2.757 0-5 2.243-5 5v1h2z"></path></symbol><symbol id="mp-insta" viewBox="0 0 24 24" style="fill: currentColor"><path d="M20.947 8.305a6.53 6.53 0 0 0-.419-2.216 4.61 4.61 0 0 0-2.633-2.633 6.606 6.606 0 0 0-2.186-.42c-.962-.043-1.267-.055-3.709-.055s-2.755 0-3.71.055a6.606 6.606 0 0 0-2.185.42 4.607 4.607 0 0 0-2.633 2.633 6.554 6.554 0 0 0-.419 2.185c-.043.963-.056 1.268-.056 3.71s0 2.754.056 3.71c.015.748.156 1.486.419 2.187a4.61 4.61 0 0 0 2.634 2.632 6.584 6.584 0 0 0 2.185.45c.963.043 1.268.056 3.71.056s2.755 0 3.71-.056a6.59 6.59 0 0 0 2.186-.419 4.615 4.615 0 0 0 2.633-2.633c.263-.7.404-1.438.419-2.187.043-.962.056-1.267.056-3.71-.002-2.442-.002-2.752-.058-3.709zm-8.953 8.297c-2.554 0-4.623-2.069-4.623-4.623s2.069-4.623 4.623-4.623a4.623 4.623 0 0 1 0 9.246zm4.807-8.339a1.077 1.077 0 0 1-1.078-1.078 1.077 1.077 0 1 1 2.155 0c0 .596-.482 1.078-1.077 1.078z"></path><circle cx="11.994" cy="11.979" r="3.003"></circle></symbol><symbol id="mp-fb" viewBox="0 0 24 24" style="fill: currentColor"><path d="M12.001 2.002c-5.522 0-9.999 4.477-9.999 9.999 0 4.99 3.656 9.126 8.437 9.879v-6.988h-2.54v-2.891h2.54V9.798c0-2.508 1.493-3.891 3.776-3.891 1.094 0 2.24.195 2.24.195v2.459h-1.264c-1.24 0-1.628.772-1.628 1.563v1.875h2.771l-.443 2.891h-2.328v6.988C18.344 21.129 22 16.992 22 12.001c0-5.522-4.477-9.999-9.999-9.999z"></path></symbol><symbol id="mp-reddit" viewBox="0 0 24 24" style="fill: currentColor"><circle cx="9.67" cy="13" r="1.001"></circle><path d="M14.09 15.391A3.28 3.28 0 0 1 12 16a3.271 3.271 0 0 1-2.081-.63.27.27 0 0 0-.379.38c.71.535 1.582.809 2.471.77a3.811 3.811 0 0 0 2.469-.77v.04a.284.284 0 0 0 .006-.396.28.28 0 0 0-.396-.003zm.209-3.351a1 1 0 0 0 0 2l-.008.039c.016.002.033 0 .051 0a1 1 0 0 0 .958-1.038 1 1 0 0 0-1.001-1.001z"></path><path d="M12 2C6.479 2 2 6.477 2 12c0 5.521 4.479 10 10 10s10-4.479 10-10c0-5.523-4.479-10-10-10zm5.859 11.33c.012.146.012.293 0 .439 0 2.24-2.609 4.062-5.83 4.062s-5.83-1.82-5.83-4.062a2.681 2.681 0 0 1 0-.439 1.46 1.46 0 0 1-.455-2.327 1.458 1.458 0 0 1 2.063-.063 7.145 7.145 0 0 1 3.899-1.23l.743-3.47v-.004A.313.313 0 0 1 12.82 6l2.449.49a1.001 1.001 0 1 1-.131.61L13 6.65l-.649 3.12a7.123 7.123 0 0 1 3.85 1.23 1.46 1.46 0 0 1 2.469 1c.01.563-.307 1.08-.811 1.33z"></path></symbol><symbol id="mp-figma" viewBox="0 0 24 24" style="fill: currentColor"><path d="M15.332 8.668a3.333 3.333 0 0 0 0-6.663H8.668a3.333 3.333 0 0 0 0 6.663 3.333 3.333 0 0 0 0 6.665 3.333 3.333 0 0 0 0 6.664A3.334 3.334 0 0 0 12 18.664V8.668h3.332z"></path><circle cx="15.332" cy="12" r="3.332"></circle></symbol><symbol id="mp-bootstrap" viewBox="0 0 24 24" style="fill: currentColor"><path d="M18.002 2.997H5.999A3.011 3.011 0 0 0 2.997 6v12.002a3.012 3.012 0 0 0 3.002 3.001h12.003a3.012 3.012 0 0 0 3.001-3.001V6a3.012 3.012 0 0 0-3.001-3.003zm-1.64 12.647c-.152.36-.389.68-.693.927a3.594 3.594 0 0 1-1.206.614c-.49.151-1.074.229-1.75.229H7.888V6.909h5.103c.943 0 1.7.213 2.267.646.569.436.854 1.082.854 1.958 0 .528-.13.983-.389 1.357-.259.373-.63.664-1.111.868v.034c.642.135 1.137.438 1.464.912.327.473.493 1.069.493 1.789 0 .405-.078.788-.225 1.147l.02.021v.003zm-2.084-2.589c-.309-.282-.739-.419-1.297-.419H9.737v3.276h3.253c.554 0 .991-.144 1.298-.435.308-.289.464-.701.464-1.229-.005-.518-.156-.919-.464-1.193h-.014.004zm-.451-2.119c.299-.251.444-.613.444-1.084 0-.526-.131-.902-.397-1.116-.264-.214-.646-.326-1.146-.326H9.727v2.898h3.001c.436.001.81-.127 1.099-.372z"></path></symbol><symbol id="mp-pinterest" viewBox="0 0 24 24" style="fill: currentColor"><path d="M11.99 2C6.472 2 2 6.473 2 11.99c0 4.232 2.633 7.85 6.35 9.306-.088-.79-.166-2.006.034-2.868.182-.78 1.172-4.966 1.172-4.966s-.299-.599-.299-1.484c0-1.388.805-2.425 1.808-2.425.853 0 1.264.64 1.264 1.407 0 .858-.546 2.139-.827 3.327-.235.994.499 1.805 1.479 1.805 1.775 0 3.141-1.872 3.141-4.575 0-2.392-1.719-4.064-4.173-4.064-2.843 0-4.512 2.132-4.512 4.335 0 .858.331 1.779.744 2.28a.3.3 0 0 1 .069.286c-.076.315-.245.994-.277 1.133-.044.183-.145.222-.335.134-1.247-.581-2.027-2.405-2.027-3.871 0-3.151 2.289-6.045 6.601-6.045 3.466 0 6.159 2.469 6.159 5.77 0 3.444-2.171 6.213-5.184 6.213-1.013 0-1.964-.525-2.29-1.146l-.623 2.374c-.225.868-.834 1.956-1.241 2.62a10 10 0 0 0 2.958.445c5.517 0 9.99-4.473 9.99-9.99S17.507 2 11.99 2"></path></symbol><symbol id="mp-discord" viewBox="0 0 24 24" style="fill: currentColor"><path d="M14.82 4.26a10.14 10.14 0 0 0-.53 1.1 14.66 14.66 0 0 0-4.58 0 10.14 10.14 0 0 0-.53-1.1 16 16 0 0 0-4.13 1.3 17.33 17.33 0 0 0-3 11.59 16.6 16.6 0 0 0 5.07 2.59A12.89 12.89 0 0 0 8.23 18a9.65 9.65 0 0 1-1.71-.83 3.39 3.39 0 0 0 .42-.33 11.66 11.66 0 0 0 10.12 0q.21.18.42.33a10.84 10.84 0 0 1-1.71.84 12.41 12.41 0 0 0 1.08 1.78 16.44 16.44 0 0 0 5.06-2.59 17.22 17.22 0 0 0-3-11.59 16.09 16.09 0 0 0-4.09-1.35zM8.68 14.81a1.94 1.94 0 0 1-1.8-2 1.93 1.93 0 0 1 1.8-2 1.93 1.93 0 0 1 1.8 2 1.93 1.93 0 0 1-1.8 2zm6.64 0a1.94 1.94 0 0 1-1.8-2 1.93 1.93 0 0 1 1.8-2 1.92 1.92 0 0 1 1.8 2 1.92 1.92 0 0 1-1.8 2z"></path></symbol></defs></svg>